#!OML:ASF X:\für Bonn\!DataBase\2005_08_10_Bjorn_Final\c3d\bjorn.ASF
:FULLY-SPECIFIED
:DEGREES
524
root 0.147906 1.65988 18.189 -446.412 -178.056 -706.942
lowerback -1.01772 3.91465 -4.58513
upperback 8.55828 5.08435 -3.36802
thorax 9.53612 1.92275 -0.630921
lowerneck 9.099 -3.32928 -6.23246
upperneck 16.75 -6.67848 2.71774
head 4.32768 -4.33019 1.88461
rclavicle -1.36764e-013 1.05753e-013
rhumerus -187.15 -221.44 106.479
rradius 59.5464
rwrist -5.69841
rhand -12.9292 12.4712
rfingers 7.12502
rthumb 13.1614 -17.0934
lclavicle -1.36764e-013 1.05753e-013
lhumerus 17.2781 -60.6025 46.3426
lradius 65.4605
lwrist -8.13776
lhand -27.7206 -379.342
lfingers 7.12502
lthumb -1.11605 10.635
rfemur -19.383 -13.5811 14.2574
rtibia 34.7681
rfoot 17.1714 11.4114
rtoes -6.77639
lfemur 167.794 180.957 167.55
ltibia 21.9703
lfoot 4.97138 4.33977
ltoes 11.0932
525
root 0.147881 1.66206 18.2015 -446.314 -178.091 -707.304
lowerback -1.22587 3.82662 -4.45306
upperback 8.19631 4.99886 -3.40129
thorax 9.27166 1.92433 -0.733634
lowerneck 7.80239 -3.46519 -6.5066
upperneck 16.1724 -6.56544 2.63942
head 4.3526 -4.17437 1.88842
rclavicle 3.18055e-015 1.43125e-014
rhumerus -187.793 -222.247 106.509
rradius 61.9409
rwrist -5.69497
rhand -13.1693 12.7321
rfingers 7.12502
rthumb 12.93 -16.8473
lclavicle 3.18055e-015 1.43125e-014
lhumerus 16.042 -60.7044 46.409
lradius 66.9294
lwrist -7.92128
lhand -27.7175 -379.415
lfingers 7.12502
lthumb -1.11304 10.562
rfemur -19.1793 -13.5221 14.2307
rtibia 34.5337
rfoot 16.9641 11.1573
rtoes -6.49672
lfemur 167.82 180.839 167.57
ltibia 21.9162
lfoot 4.97242 4.1575
ltoes 11.2036
526
root 0.148128 1.66385 18.2138 -446.224 -178.126 -707.684
lowerback -1.42405 3.7501 -4.31747
upperback 7.84512 4.92461 -3.4387
thorax 9.01508 1.92857 -0.842987
lowerneck 6.32877 -3.61788 -6.73497
upperneck 16.155 -6.51403 2.6892
head 4.12378 -4.04717 1.77441
rclavicle -3.18055e-014 7.4743e-014
rhumerus -188.393 -222.933 106.545
rradius 64.2616
rwrist -5.64298
rhand -13.3087 12.9534
rfingers 7.12502
rthumb 12.7956 -16.6344
lclavicle -3.18055e-014 7.4743e-014
lhumerus 14.8482 -60.8288 46.3981
lradius 68.383
lwrist -7.72676
lhand -27.6393 -379.472
lfingers 7.12502
lthumb -1.03755 10.5048
rfemur -18.9835 -13.5273 14.2199
rtibia 34.3212
rfoot 16.668 10.9747
rtoes -6.6013
lfemur 167.855 180.666 167.583
ltibia 21.8557
lfoot 5.05745 3.8941
ltoes 11.6489
527
root 0.149808 1.6664 18.225 -446.126 -178.161 -708.069
lowerback -1.65085 3.67213 -4.20952
upperback 7.5131 4.85001 -3.46032
thorax 8.79393 1.92701 -0.919338
lowerneck 4.94709 -3.75413 -7.04663
upperneck 15.8503 -6.45653 2.71494
head 4.26236 -3.94675 1.80343
rclavicle 7.31528e-014 -2.8625e-014
rhumerus -188.892 -223.566 106.687
rradius 66.4878
rwrist -5.59922
rhand -13.3802 13.2393
rfingers 7.12502
rthumb 12.7267 -16.3529
lclavicle 7.31528e-014 -2.8625e-014
lhumerus 13.6979 -60.9129 46.3654
lradius 69.815
lwrist -7.53742
lhand -27.4354 -379.411
lfingers 7.12502
lthumb -0.84062 10.5667
rfemur -18.8205 -13.5945 14.2321
rtibia 34.1287
rfoot 16.3024 10.9026
rtoes -7.14586
lfemur 167.891 180.497 167.605
ltibia 21.7887
lfoot 5.18593 3.57198
ltoes 12.5005
528
root 0.152203 1.66837 18.2367 -446.045 -178.195 -708.444
lowerback -1.86624 3.59623 -4.1135
upperback 7.19663 4.7755 -3.46476
thorax 8.58144 1.92192 -0.972089
lowerneck 3.59821 -3.88073 -7.39627
upperneck 15.6189 -6.41445 2.83122
head 4.42509 -3.86359 1.86605
rclavicle 1.27222e-014 -2.06736e-014
rhumerus -189.411 -224.165 106.881
rradius 68.7044
rwrist -5.614
rhand -13.4929 13.5388
rfingers 7.12502
rthumb 12.618 -16.0601
lclavicle 1.27222e-014 -2.06736e-014
lhumerus 12.6309 -61.0169 46.2796
lradius 71.1964
lwrist -7.36825
lhand -27.2381 -379.407
lfingers 7.12502
lthumb -0.650047 10.572
rfemur -18.6454 -13.6318 14.241
rtibia 33.9621
rfoot 15.8865 10.743
rtoes -7.37857
lfemur 167.944 180.364 167.63
ltibia 21.7072
lfoot 5.25623 3.32675
ltoes 12.9056
529
root 0.15646 1.67113 18.2488 -445.936 -178.197 -708.819
lowerback -2.12228 3.50024 -4.08266
upperback 6.86474 4.68017 -3.4731
thorax 8.37227 1.9019 -0.993356
lowerneck 2.5894 -3.98789 -7.73706
upperneck 15.1099 -6.37091 2.99037
head 4.44946 -3.77808 1.95314
rclavicle 1.59028e-014 -3.81667e-014
rhumerus -189.898 -224.74 107.07
rradius 70.8227
rwrist -5.6897
rhand -13.5129 13.8984
rfingers 7.12502
rthumb 12.5987 -15.7017
lclavicle 1.59028e-014 -3.81667e-014
lhumerus 11.4773 -61.0673 46.2622
lradius 72.5313
lwrist -7.21544
lhand -26.9725 -379.528
lfingers 7.12502
lthumb -0.393516 10.4518
rfemur -18.5163 -13.7262 14.2264
rtibia 33.8249
rfoot 15.4757 10.6217
rtoes -7.18651
lfemur 167.981 180.204 167.621
ltibia 21.5961
lfoot 5.31596 3.14986
ltoes 13.2688
